<svg width="105" height="72" viewBox="0 0 105 72" fill="none" xmlns="http://www.w3.org/2000/svg">
<path d="M52.5 10.2857C66.99 10.2857 78.75 21.8057 78.75 36C78.75 50.1943 66.99 61.7143 52.5 61.7143C38.01 61.7143 26.25 50.1943 26.25 36C26.25 21.8057 38.01 10.2857 52.5 10.2857ZM16.1175 41.1429C18.69 58.5771 33.9675 72 52.5 72C71.0325 72 86.31 58.5771 88.8825 41.1429H105V30.8571H88.8825C86.31 13.4229 71.0325 0 52.5 0C33.9675 0 18.69 13.4229 16.1175 30.8571H0V41.1429H16.1175ZM63 28.2857V23.7086C63 18.5657 59.43 13.8343 54.285 13.0114C52.7777 12.7567 51.2318 12.8277 49.7554 13.2193C48.279 13.611 46.9077 14.3139 45.7376 15.2789C44.5675 16.2439 43.6267 17.4477 42.9811 18.806C42.3355 20.1644 42.0007 21.6445 42 23.1429V28.2857C39.1125 28.2857 36.75 30.6 36.75 33.4286V48.8571C36.75 51.6857 39.1125 54 42 54H63C65.8875 54 68.25 51.6857 68.25 48.8571V33.4286C68.25 30.6 65.8875 28.2857 63 28.2857ZM52.5 45C50.3475 45 48.5625 43.2514 48.5625 41.1429C48.5625 39.0343 50.3475 37.2857 52.5 37.2857C54.6525 37.2857 56.4375 39.0343 56.4375 41.1429C56.4375 43.2514 54.6525 45 52.5 45ZM57.75 28.2857H47.25V23.1429C47.25 20.3143 49.6125 18 52.5 18C55.3875 18 57.75 20.3143 57.75 23.1429V28.2857Z" fill="url(#paint0_linear_231_14)"/>
<defs>
<linearGradient id="paint0_linear_231_14" x1="52.5" y1="0" x2="52.5" y2="72" gradientUnits="userSpaceOnUse">
<stop stop-color="#F80759"/>
<stop offset="1" stop-color="#A85DF4"/>
</linearGradient>
</defs>
</svg>
