<svg width="72" height="72" viewBox="0 0 72 72" fill="none" xmlns="http://www.w3.org/2000/svg">
<path d="M42.923 31.0002H31.0003V26.2311C31.0003 24.9663 31.5028 23.7532 32.3971 22.8588C33.2915 21.9645 34.5045 21.462 35.7694 21.462C37.0342 21.462 38.2472 21.9645 39.1416 22.8588C40.036 23.7532 40.5385 24.9663 40.5385 26.2311H45.3075C45.3075 23.7014 44.3026 21.2753 42.5139 19.4866C40.7251 17.6978 38.2991 16.6929 35.7694 16.6929C33.2397 16.6929 30.8136 17.6978 29.0249 19.4866C27.2361 21.2753 26.2312 23.7014 26.2312 26.2311V31.6631C25.5086 32.0783 24.9079 32.6763 24.4894 33.397C24.0708 34.1177 23.8492 34.9358 23.8467 35.7692V47.6919C23.8479 48.9564 24.3508 50.1687 25.2449 51.0628C26.139 51.9569 27.3513 52.4598 28.6158 52.461H42.923C44.1874 52.4598 45.3997 51.9569 46.2938 51.0628C47.1879 50.1687 47.6908 48.9564 47.6921 47.6919V35.7692C47.6908 34.5048 47.1879 33.2925 46.2938 32.3984C45.3997 31.5043 44.1874 31.0014 42.923 31.0002ZM42.923 47.6919H28.6158V35.7692H42.923V47.6919Z" fill="url(#paint0_linear_231_11)"/>
<path d="M70.1402 39.1412C71.0343 38.2469 71.5365 37.034 71.5365 35.7695C71.5365 34.5049 71.0343 33.2921 70.1402 32.3977L56.3409 18.5984L63.256 11.7738C64.276 12.0278 65.3513 11.9379 66.315 11.5183C67.2788 11.0987 68.077 10.3727 68.586 9.45307C69.095 8.53341 69.2863 7.47147 69.1301 6.43202C68.9739 5.39257 68.479 4.43372 67.7222 3.70426C66.9654 2.9748 65.989 2.5155 64.9446 2.39763C63.9001 2.27976 62.8459 2.50991 61.9456 3.05238C61.0452 3.59484 60.3491 4.41928 59.9652 5.39778C59.5813 6.37628 59.5311 7.45413 59.8223 8.4641L52.9691 15.2266L39.1412 1.39632C38.2469 0.502257 37.034 0 35.7695 0C34.5049 0 33.2921 0.502257 32.3977 1.39632L18.5984 15.2004L11.7738 8.28049C12.0264 7.26026 11.9353 6.18519 11.5145 5.22206C11.0938 4.25892 10.3669 3.46156 9.44676 2.95368C8.52658 2.44579 7.46452 2.25577 6.42533 2.4131C5.38614 2.57042 4.42792 3.0663 3.69931 3.82379C2.97071 4.58129 2.51245 5.55806 2.39564 6.60258C2.27882 7.6471 2.50998 8.70098 3.05325 9.60071C3.59651 10.5005 4.42152 11.1958 5.40028 11.5788C6.37904 11.9618 7.45684 12.0111 8.46648 11.719L15.2266 18.5698L1.39632 32.3977C0.502257 33.2921 0 34.5049 0 35.7695C0 37.034 0.502257 38.2469 1.39632 39.1412L15.2266 52.9691L8.46648 59.8199C7.45898 59.5297 6.38389 59.58 5.40785 59.9629C4.43182 60.3458 3.60935 61.04 3.06793 61.9378C2.52651 62.8357 2.29638 63.8871 2.41321 64.929C2.53004 65.9709 2.9873 66.9452 3.71413 67.7009C4.44095 68.4565 5.39673 68.9513 6.43334 69.1085C7.46994 69.2658 8.52946 69.0767 9.44768 68.5706C10.3659 68.0645 11.0915 67.2696 11.5121 66.3092C11.9326 65.3488 12.0246 64.2764 11.7738 63.2584L18.5984 56.3433L32.3977 70.1402C33.2921 71.0343 34.5049 71.5365 35.7695 71.5365C37.034 71.5365 38.2469 71.0343 39.1412 70.1402L52.9715 56.3123L59.8199 63.0748C59.5297 64.0823 59.58 65.1574 59.9629 66.1334C60.3458 67.1095 61.04 67.9319 61.9378 68.4734C62.8357 69.0148 63.8871 69.2449 64.929 69.1281C65.9709 69.0113 66.9452 68.554 67.7009 67.8272C68.4565 67.1003 68.9513 66.1446 69.1085 65.108C69.2658 64.0714 69.0767 63.0118 68.5706 62.0936C68.0645 61.1754 67.2696 60.4498 66.3092 60.0292C65.3488 59.6087 64.2764 59.5166 63.2584 59.7675L56.3433 52.9405L70.1402 39.1412ZM35.7695 66.7685L4.77044 35.7695L35.7695 4.77044L66.7685 35.7695L35.7695 66.7685Z" fill="url(#paint1_linear_231_11)"/>
<defs>
<linearGradient id="paint0_linear_231_11" x1="35.7694" y1="16.6929" x2="35.7694" y2="52.461" gradientUnits="userSpaceOnUse">
<stop stop-color="#F80759"/>
<stop offset="1" stop-color="#A85DF4"/>
</linearGradient>
<linearGradient id="paint1_linear_231_11" x1="35.7683" y1="0" x2="35.7683" y2="71.5365" gradientUnits="userSpaceOnUse">
<stop stop-color="#F80759"/>
<stop offset="1" stop-color="#A85DF4"/>
</linearGradient>
</defs>
</svg>
