<svg width="73" height="72" viewBox="0 0 73 72" fill="none" xmlns="http://www.w3.org/2000/svg">
<path d="M50.6463 35.5524C50.6498 32.7862 49.7524 30.094 48.0899 27.8831L54.5051 21.5162C55.7595 22.038 57.1018 22.3162 58.4603 22.3362C59.6893 22.3748 60.9138 22.1708 62.0639 21.7358C63.214 21.3009 64.2672 20.6436 65.1631 19.8014C66.059 18.9592 66.7802 17.9488 67.2853 16.8277C67.7905 15.7067 68.0698 14.4971 68.1072 13.2681C68.1072 10.7095 67.0908 8.25582 65.2817 6.44667C63.4725 4.63752 61.0188 3.62115 58.4603 3.62115C55.9018 3.62115 53.448 4.63752 51.6389 6.44667C49.8297 8.25582 48.8134 10.7095 48.8134 13.2681C48.8195 14.7601 49.2188 16.2241 49.971 17.5127L43.5558 23.9279C41.3007 22.6657 38.7602 22.0015 36.1759 21.9985C32.9851 21.9546 29.8693 22.9665 27.3133 24.877C24.7573 26.7875 22.9045 29.4892 22.0432 32.5619H18.715C17.9865 30.7606 16.7311 29.2212 15.113 28.1454C13.495 27.0696 11.5898 26.5074 9.64691 26.5326C7.17291 26.4545 4.76873 27.3597 2.9607 29.0502C1.15266 30.7408 0.0880796 33.0788 0 35.5524C0.0374228 36.7815 0.316702 37.9911 0.821873 39.1121C1.32704 40.2331 2.0482 41.2436 2.94412 42.0858C3.84004 42.9279 4.89315 43.5853 6.04326 44.0202C7.19337 44.4551 8.41792 44.6591 9.64691 44.6205C11.5898 44.6457 13.495 44.0835 15.113 43.0077C16.7311 41.9319 17.9865 40.3925 18.715 38.5912H22.0432C22.9045 41.6639 24.7573 44.3656 27.3133 46.2761C29.8693 48.1866 32.9851 49.1986 36.1759 49.1546C38.0194 49.2125 39.8562 48.9065 41.5814 48.2541C43.3066 47.6017 44.8862 46.6157 46.2301 45.3524C47.574 44.0892 48.6557 42.5735 49.4135 40.8919C50.1712 39.2104 50.5902 37.396 50.6463 35.5524V35.5524ZM58.4603 10.2775C59.3361 10.1969 60.2082 10.4662 60.886 11.0265C61.5639 11.5869 61.9924 12.3928 62.0779 13.2681C61.9373 14.1261 61.4963 14.9063 60.8336 15.4692C60.171 16.0321 59.3298 16.3412 58.4603 16.3412C57.5908 16.3412 56.7496 16.0321 56.0869 15.4692C55.4243 14.9063 54.9833 14.1261 54.8427 13.2681C54.9401 12.3978 55.3719 11.5994 56.0469 11.0414C56.7218 10.4834 57.5872 10.2095 58.4603 10.2775ZM9.64691 38.5912C8.76629 38.6585 7.89436 38.378 7.2181 37.8099C6.54184 37.2419 6.11507 36.4315 6.02932 35.5524C6.12676 34.6821 6.55853 33.8837 7.2335 33.3258C7.90847 32.7678 8.77382 32.4939 9.64691 32.5619C10.52 32.4939 11.3854 32.7678 12.0603 33.3258C12.7353 33.8837 13.1671 34.6821 13.2645 35.5524C13.1788 36.4315 12.752 37.2419 12.0757 37.8099C11.3995 38.378 10.5275 38.6585 9.64691 38.5912V38.5912ZM36.1759 43.1253C34.0548 43.2307 31.9778 42.4941 30.397 41.0759C28.8162 39.6577 27.8594 37.6725 27.7349 35.5524C27.8593 33.4363 28.8177 31.4559 30.4 30.0453C31.9824 28.6348 34.0595 27.9093 36.1759 28.0278C38.2892 27.9221 40.3593 28.652 41.9387 30.06C43.5182 31.468 44.4802 33.4409 44.617 35.5524C44.4802 37.668 43.5198 39.6457 41.9418 41.0614C40.3638 42.4771 38.2939 43.218 36.1759 43.1253V43.1253Z" fill="url(#paint0_linear_231_8)"/>
<path d="M9.64691 18.0926C11.0084 18.1015 12.3564 17.822 13.6021 17.2726L22.0914 25.9066C23.3207 24.2651 24.8215 22.8459 26.529 21.7102L18.1362 13.2692C18.8884 11.9806 19.2877 10.5166 19.2938 9.02453C19.2057 6.55086 18.1412 4.21285 16.3331 2.52234C14.5251 0.831832 12.1209 -0.0734545 9.64691 0.00466694C7.17291 -0.0734545 4.76873 0.831832 2.9607 2.52234C1.15266 4.21285 0.0880796 6.55086 0 9.02453C0.0374228 10.2536 0.316702 11.4632 0.821873 12.5842C1.32704 13.7052 2.0482 14.7157 2.94412 15.5579C3.84004 16.4 4.89315 17.0574 6.04326 17.4923C7.19337 17.9272 8.41792 18.1312 9.64691 18.0926V18.0926ZM9.64691 6.03399C10.52 5.966 11.3854 6.23989 12.0603 6.79787C12.7353 7.35584 13.1671 8.15423 13.2645 9.02453C13.1788 9.90355 12.752 10.714 12.0757 11.282C11.3995 11.8501 10.5275 12.1306 9.64691 12.0633C8.76629 12.1306 7.89436 11.8501 7.2181 11.282C6.54184 10.714 6.11507 9.90355 6.02932 9.02453C6.12676 8.15423 6.55853 7.35584 7.2335 6.79787C7.90847 6.23989 8.77382 5.966 9.64691 6.03399ZM62.7049 53.0627C61.3434 53.0538 59.9955 53.3333 58.7497 53.8827L50.2604 45.2005C49.0043 46.7943 47.4877 48.1642 45.7746 49.2522L54.1674 57.645C53.43 58.9373 53.0472 60.4017 53.058 61.8896C53.058 64.4481 54.0744 66.9019 55.8835 68.711C57.6927 70.5202 60.1464 71.5365 62.7049 71.5365C65.2635 71.5365 67.7172 70.5202 69.5263 68.711C71.3355 66.9019 72.3518 64.4481 72.3518 61.8896C72.2146 59.4501 71.1286 57.161 69.326 55.5116C67.5233 53.8622 65.147 52.9833 62.7049 53.0627V53.0627ZM62.7049 65.1213C61.8243 65.1886 60.9524 64.9081 60.2761 64.3401C59.5999 63.772 59.1731 62.9616 59.0873 62.0826C59.2279 61.2245 59.6689 60.4444 60.3316 59.8814C60.9943 59.3185 61.8354 59.0094 62.7049 59.0094C63.5744 59.0094 64.4156 59.3185 65.0783 59.8814C65.7409 60.4444 66.1819 61.2245 66.3225 62.0826C66.2368 62.9616 65.81 63.772 65.1337 64.3401C64.4575 64.9081 63.5856 65.1886 62.7049 65.1213V65.1213Z" fill="url(#paint1_linear_231_8)"/>
<defs>
<linearGradient id="paint0_linear_231_8" x1="34.0536" y1="3.62115" x2="34.0536" y2="49.1615" gradientUnits="userSpaceOnUse">
<stop stop-color="#F80759"/>
<stop offset="1" stop-color="#A85DF4"/>
</linearGradient>
<linearGradient id="paint1_linear_231_8" x1="36.1759" y1="0" x2="36.1759" y2="71.5365" gradientUnits="userSpaceOnUse">
<stop stop-color="#F80759"/>
<stop offset="1" stop-color="#A85DF4"/>
</linearGradient>
</defs>
</svg>
