<svg width="72" height="72" viewBox="0 0 72 72" fill="none" xmlns="http://www.w3.org/2000/svg">
<path fill-rule="evenodd" clip-rule="evenodd" d="M0 1.98713C0 1.46011 0.209358 0.954674 0.582016 0.582016C0.954674 0.209358 1.46011 0 1.98713 0H19.8713C20.3983 0 20.9037 0.209358 21.2764 0.582016C21.649 0.954674 21.8584 1.46011 21.8584 1.98713V19.8713C21.8584 20.3983 21.649 20.9037 21.2764 21.2764C20.9037 21.649 20.3983 21.8584 19.8713 21.8584H1.98713C1.46011 21.8584 0.954674 21.649 0.582016 21.2764C0.209358 20.9037 0 20.3983 0 19.8713V1.98713ZM49.6781 51.6653C49.6781 51.1382 49.8875 50.6328 50.2602 50.2602C50.6328 49.8875 51.1382 49.6781 51.6653 49.6781H69.5494C70.0764 49.6781 70.5819 49.8875 70.9545 50.2602C71.3272 50.6328 71.5365 51.1382 71.5365 51.6653V69.5494C71.5365 70.0764 71.3272 70.5819 70.9545 70.9545C70.5819 71.3272 70.0764 71.5365 69.5494 71.5365H51.6653C51.1382 71.5365 50.6328 71.3272 50.2602 70.9545C49.8875 70.5819 49.6781 70.0764 49.6781 69.5494V51.6653ZM48.468 45.6582L42.141 39.3312L39.3312 42.141L45.6582 48.468L48.468 45.6582ZM31.1522 28.3424L39.055 36.2452L36.2452 39.057L28.3424 31.1522V39.5339H24.3681V24.3681H39.5339V28.3424H31.1522V28.3424Z" fill="url(#paint0_linear_231_6)"/>
<defs>
<linearGradient id="paint0_linear_231_6" x1="35.7683" y1="0" x2="35.7683" y2="71.5365" gradientUnits="userSpaceOnUse">
<stop stop-color="#F80759"/>
<stop offset="1" stop-color="#A85DF4"/>
</linearGradient>
</defs>
</svg>
