<svg width="112" height="72" viewBox="0 0 112 72" fill="none" xmlns="http://www.w3.org/2000/svg">
<path d="M55.7371 6.30629e-06C43.3418 6.30629e-06 30.9558 3.63968 20.2457 10.9237H0L9.11311 20.8353C4.96094 24.6183 2.05018 29.5688 0.763219 35.0365C-0.523743 40.5042 -0.126713 46.2332 1.90215 51.4711C3.93102 56.709 7.49682 61.2107 12.1311 64.3848C16.7654 67.5589 22.2515 69.257 27.8686 69.2559C34.8871 69.262 41.6471 66.6078 46.7865 61.828L55.7093 71.54L64.632 61.8373C69.7684 66.612 76.5233 69.2629 83.5361 69.2559C90.922 69.2559 98.0055 66.3225 103.229 61.1008C108.452 55.879 111.388 48.7965 111.391 41.4106C111.395 37.537 110.589 33.7055 109.024 30.162C107.46 26.6185 105.171 23.4416 102.305 20.8353L111.419 10.9237H91.2239C80.7606 3.80086 68.3947 -0.00565525 55.7371 6.30629e-06V6.30629e-06ZM55.7093 9.09919C62.8169 9.09919 69.9291 10.5058 76.6188 13.2913C64.7295 17.8409 55.7093 28.4814 55.7093 40.8767C55.7093 28.4767 46.6937 17.8409 34.7997 13.2913C41.4251 10.5299 48.5314 9.10677 55.7093 9.10383V9.09919ZM27.8639 22.5715C30.3385 22.5715 32.7889 23.059 35.0751 24.0059C37.3613 24.9529 39.4386 26.3409 41.1884 28.0907C42.9382 29.8405 44.3262 31.9178 45.2732 34.2041C46.2202 36.4903 46.7076 38.9406 46.7076 41.4152C46.7076 43.8898 46.2202 46.3401 45.2732 48.6264C44.3262 50.9126 42.9382 52.9899 41.1884 54.7397C39.4386 56.4895 37.3613 57.8775 35.0751 58.8245C32.7889 59.7715 30.3385 60.2589 27.8639 60.2589C22.8663 60.2589 18.0733 58.2736 14.5394 54.7397C11.0056 51.2058 9.02026 46.4129 9.02026 41.4152C9.02026 36.4176 11.0056 31.6246 14.5394 28.0907C18.0733 24.5569 22.8663 22.5715 27.8639 22.5715V22.5715ZM83.5361 22.5808C86.0097 22.5799 88.4594 23.0662 90.7451 24.012C93.0308 24.9578 95.1079 26.3445 96.8577 28.0931C98.6075 29.8416 99.9957 31.9176 100.943 34.2026C101.891 36.4876 102.379 38.9369 102.38 41.4106C102.381 43.8842 101.894 46.3339 100.949 48.6196C100.003 50.9053 98.616 52.9824 96.8675 54.7322C95.119 56.482 93.043 57.8702 90.758 58.8177C88.4729 59.7652 86.0237 60.2533 83.55 60.2542C78.5542 60.2561 73.7623 58.2733 70.2284 54.742C66.6945 51.2108 64.7082 46.4203 64.7063 41.4245C64.7045 36.4287 66.6873 31.6368 70.2185 28.1029C73.7498 24.569 78.5403 22.5827 83.5361 22.5808V22.5808ZM27.8639 31.5407C25.2438 31.5407 22.731 32.5816 20.8783 34.4343C19.0256 36.287 17.9848 38.7997 17.9848 41.4199C17.9848 44.04 19.0256 46.5527 20.8783 48.4054C22.731 50.2581 25.2438 51.299 27.8639 51.299C30.484 51.299 32.9968 50.2581 34.8495 48.4054C36.7022 46.5527 37.743 44.04 37.743 41.4199C37.743 38.7997 36.7022 36.287 34.8495 34.4343C32.9968 32.5816 30.484 31.5407 27.8639 31.5407V31.5407ZM83.5361 31.5407C80.916 31.5407 78.4032 32.5816 76.5505 34.4343C74.6978 36.287 73.657 38.7997 73.657 41.4199C73.657 44.04 74.6978 46.5527 76.5505 48.4054C78.4032 50.2581 80.916 51.299 83.5361 51.299C86.1562 51.299 88.669 50.2581 90.5217 48.4054C92.3743 46.5527 93.4152 44.04 93.4152 41.4199C93.4152 38.7997 92.3743 36.287 90.5217 34.4343C88.669 32.5816 86.1562 31.5407 83.5361 31.5407Z" fill="url(#paint0_linear_231_5)"/>
<defs>
<linearGradient id="paint0_linear_231_5" x1="55.7093" y1="0" x2="55.7093" y2="71.54" gradientUnits="userSpaceOnUse">
<stop stop-color="#F80759"/>
<stop offset="1" stop-color="#A85DF4"/>
</linearGradient>
</defs>
</svg>
