<svg width="95" height="72" viewBox="0 0 95 72" fill="none" xmlns="http://www.w3.org/2000/svg">
<path d="M83.421 1.17363C82.4146 0.522552 81.2637 0.128661 80.0694 0.0265843C78.8751 -0.0754921 77.674 0.117372 76.5717 0.588224L40.4519 14.8137C39.5967 15.1617 38.6822 15.3407 37.759 15.3406H14.6353C12.6945 15.3406 10.8332 16.1115 9.46092 17.4839C8.0886 18.8562 7.31763 20.7174 7.31763 22.6582V23.2436H0V40.8059H7.31763V41.567C7.36349 43.4771 8.15465 45.2936 9.52203 46.6282C10.8894 47.9627 12.7246 48.7095 14.6353 48.709L23.4164 67.325C24.011 68.5787 24.9472 69.6391 26.1173 70.3847C27.2874 71.1303 28.6441 71.5307 30.0316 71.54H33.7197C35.6502 71.5246 37.4965 70.7468 38.8562 69.3761C40.2159 68.0055 40.9788 66.153 40.9787 64.2224V49.4115L76.5717 63.637C77.4472 63.9853 78.3809 64.1641 79.3231 64.1638C80.785 64.1402 82.2085 63.6928 83.421 62.8759C84.3839 62.2258 85.1781 61.3558 85.738 60.3378C86.2979 59.3198 86.6074 58.1831 86.6408 57.0218V7.20337C86.6354 6.01215 86.3393 4.84025 85.7782 3.78945C85.2171 2.73864 84.4079 1.84071 83.421 1.17363ZM33.6611 22.6582V41.567H14.6353V22.6582H33.6611ZM33.6611 64.2224H29.973L22.7725 48.709H33.6611V64.2224ZM43.1448 42.4451C42.4497 42.0899 41.7249 41.7961 40.9787 41.567V22.2484C41.7178 22.0959 42.4424 21.8805 43.1448 21.6045L79.3231 7.20337V56.8462L43.1448 42.4451ZM86.8164 24.7071V39.3424C88.7572 39.3424 90.6184 38.5714 91.9907 37.1991C93.3631 35.8268 94.134 33.9655 94.134 32.0248C94.134 30.084 93.3631 28.2228 91.9907 26.8504C90.6184 25.4781 88.7572 24.7071 86.8164 24.7071Z" fill="url(#paint0_linear_231_4)"/>
<defs>
<linearGradient id="paint0_linear_231_4" x1="47.067" y1="0" x2="47.067" y2="71.54" gradientUnits="userSpaceOnUse">
<stop stop-color="#F80759"/>
<stop offset="1" stop-color="#A85DF4"/>
</linearGradient>
</defs>
</svg>
