<svg width="80" height="72" viewBox="0 0 80 72" fill="none" xmlns="http://www.w3.org/2000/svg">
<path d="M50.6901 27.8211C54.5294 27.8211 57.6453 30.9371 57.6453 34.7764V53.651C57.6453 58.3955 55.7606 62.9456 52.4058 66.3004C49.051 69.6553 44.5008 71.54 39.7564 71.54C35.0119 71.54 30.4618 69.6553 27.107 66.3004C23.7521 62.9456 21.8674 58.3955 21.8674 53.651V34.7764C21.8674 30.9371 24.9794 27.8211 28.8227 27.8211H50.6901V27.8211ZM20.3929 27.8211C18.9614 29.5438 18.1003 31.6687 17.9287 33.902L17.889 34.7764V53.651C17.889 57.0174 18.6521 60.2049 20.0113 63.0506C17.6556 63.6808 15.1865 63.7608 12.7949 63.2843C10.4033 62.8079 8.15337 61.7878 6.219 60.3029C4.28463 58.818 2.71768 56.9082 1.63931 54.721C0.560943 52.5338 4.88848e-05 50.1279 0 47.6894V34.7764C6.51991e-05 33.0309 0.656463 31.3492 1.8389 30.0651C3.02133 28.7811 4.64334 27.9886 6.38296 27.845L6.95528 27.8211H20.3929V27.8211ZM59.1199 27.8211H72.5336C76.3729 27.8211 79.4889 30.9371 79.4889 34.7764V47.6933C79.4894 50.1303 78.9297 52.5348 77.853 54.721C76.7762 56.9072 75.2113 58.8167 73.2791 60.3017C71.3469 61.7868 69.0991 62.8078 66.7094 63.2858C64.3198 63.7638 61.8522 63.6861 59.4974 63.0585C60.6898 60.5626 61.4211 57.8123 61.584 54.903L61.6198 53.651V34.7764C61.6198 32.1334 60.6818 29.709 59.1159 27.8211H59.1199ZM39.7444 0C42.9067 0 45.9395 1.25621 48.1755 3.49226C50.4116 5.72832 51.6678 8.76107 51.6678 11.9233C51.6678 15.0856 50.4116 18.1183 48.1755 20.3544C45.9395 22.5905 42.9067 23.8467 39.7444 23.8467C36.5822 23.8467 33.5494 22.5905 31.3134 20.3544C29.0773 18.1183 27.8211 15.0856 27.8211 11.9233C27.8211 8.76107 29.0773 5.72832 31.3134 3.49226C33.5494 1.25621 36.5822 0 39.7444 0V0ZM65.5783 3.97444C68.2136 3.97444 70.7408 5.02128 72.6042 6.88466C74.4676 8.74805 75.5144 11.2753 75.5144 13.9106C75.5144 16.5458 74.4676 19.0731 72.6042 20.9364C70.7408 22.7998 68.2136 23.8467 65.5783 23.8467C62.9431 23.8467 60.4158 22.7998 58.5524 20.9364C56.6891 19.0731 55.6422 16.5458 55.6422 13.9106C55.6422 11.2753 56.6891 8.74805 58.5524 6.88466C60.4158 5.02128 62.9431 3.97444 65.5783 3.97444ZM13.9106 3.97444C16.5458 3.97444 19.0731 5.02128 20.9364 6.88466C22.7998 8.74805 23.8467 11.2753 23.8467 13.9106C23.8467 16.5458 22.7998 19.0731 20.9364 20.9364C19.0731 22.7998 16.5458 23.8467 13.9106 23.8467C11.2753 23.8467 8.74805 22.7998 6.88466 20.9364C5.02128 19.0731 3.97444 16.5458 3.97444 13.9106C3.97444 11.2753 5.02128 8.74805 6.88466 6.88466C8.74805 5.02128 11.2753 3.97444 13.9106 3.97444V3.97444Z" fill="url(#paint0_linear_231_3)"/>
<defs>
<linearGradient id="paint0_linear_231_3" x1="39.7444" y1="0" x2="39.7444" y2="71.54" gradientUnits="userSpaceOnUse">
<stop stop-color="#F80759"/>
<stop offset="1" stop-color="#A85DF4"/>
</linearGradient>
</defs>
</svg>
