<svg width="72" height="72" viewBox="0 0 72 72" fill="none" xmlns="http://www.w3.org/2000/svg">
<path d="M12.0652 8.9783C18.5993 3.18134 27.035 -0.0137195 35.77 4.4284e-05C55.5257 4.4284e-05 71.5399 16.0143 71.5399 35.77C71.5516 43.081 69.3123 50.2184 65.1264 56.2125L55.4434 35.77H64.3859C64.386 30.0803 62.69 24.5197 59.5145 19.7985C56.339 15.0774 51.8282 11.4101 46.5583 9.26502C41.2884 7.11998 35.4987 6.59461 29.9287 7.75602C24.3588 8.91743 19.2615 11.7129 15.2881 15.7853L12.0688 8.98188L12.0652 8.9783ZM59.4747 62.5617C52.9406 68.3587 44.5049 71.5537 35.77 71.54C16.0142 71.54 0 55.5257 0 35.77C0 28.1689 2.37155 21.1222 6.41355 15.3275L16.0965 35.77H7.15399C7.15389 41.4597 8.84992 47.0203 12.0254 51.7415C15.2009 56.4626 19.7118 60.1299 24.9816 62.275C30.2515 64.42 36.0413 64.9454 41.6112 63.784C47.1811 62.6226 52.2784 59.8271 56.2518 55.7547L59.4711 62.5581L59.4747 62.5617ZM40.8278 45.8857L30.7121 35.77L20.5928 45.8857L15.5349 40.8279L30.7121 25.6543L40.8278 35.77L50.9472 25.6543L56.005 30.7121L40.8278 45.8857V45.8857Z" fill="url(#paint0_linear_231_2)"/>
<defs>
<linearGradient id="paint0_linear_231_2" x1="35.77" y1="0" x2="35.77" y2="71.54" gradientUnits="userSpaceOnUse">
<stop stop-color="#F80759"/>
<stop offset="1" stop-color="#A85DF4"/>
</linearGradient>
</defs>
</svg>
